<mxfile host="app.diagrams.net" agent="Mozilla/5.0 (Windows NT 10.0; Win64; x64) AppleWebKit/537.36 (KHTML, like Gecko) Chrome/133.0.0.0 Safari/537.36 Edg/133.0.0.0" version="26.0.16">
  <diagram name="第 1 页" id="xFfsTyWotrYMLV9bJrBI">
    <mxGraphModel dx="4582" dy="539" grid="1" gridSize="10" guides="1" tooltips="1" connect="1" arrows="1" fold="1" page="1" pageScale="1" pageWidth="3300" pageHeight="4681" math="0" shadow="0">
      <root>
        <mxCell id="0" />
        <mxCell id="1" parent="0" />
        <mxCell id="ZdD5bpX7GYeLZ1ydD8iu-57" value="老年对照组&#xa;(Sham手术)" style="whiteSpace=wrap;strokeWidth=2;direction=south;" parent="1" vertex="1">
          <mxGeometry x="-160" y="257" width="140" height="30" as="geometry" />
        </mxCell>
        <mxCell id="ZdD5bpX7GYeLZ1ydD8iu-58" value="年轻对照组&#xa;(Sham手术)" style="whiteSpace=wrap;strokeWidth=2;direction=south;" parent="1" vertex="1">
          <mxGeometry x="-160" y="307" width="140" height="29" as="geometry" />
        </mxCell>
        <mxCell id="ZdD5bpX7GYeLZ1ydD8iu-59" value="老年缺血组&#xa;(ttMCAO)" style="whiteSpace=wrap;strokeWidth=2;direction=south;" parent="1" vertex="1">
          <mxGeometry x="-160" y="354" width="140" height="30" as="geometry" />
        </mxCell>
        <mxCell id="ZdD5bpX7GYeLZ1ydD8iu-60" value="年轻缺血组&#xa;(ttMCAO)" style="whiteSpace=wrap;strokeWidth=2;direction=south;" parent="1" vertex="1">
          <mxGeometry x="-160" y="414" width="140" height="30" as="geometry" />
        </mxCell>
        <mxCell id="ZdD5bpX7GYeLZ1ydD8iu-64" value="1、2、3d 行为学评估（mNSS评分）" style="whiteSpace=wrap;strokeWidth=2;direction=west;" parent="1" vertex="1">
          <mxGeometry x="120" y="210" width="240" height="37.5" as="geometry" />
        </mxCell>
        <mxCell id="ZdD5bpX7GYeLZ1ydD8iu-65" value="1、2、3d脑梗死体积测定&#xa;TTC染色" style="whiteSpace=wrap;strokeWidth=2;direction=west;" parent="1" vertex="1">
          <mxGeometry x="120" y="160" width="240" height="40" as="geometry" />
        </mxCell>
        <mxCell id="ZdD5bpX7GYeLZ1ydD8iu-66" value="Evans Blue染色检测血脑屏障通透性" style="whiteSpace=wrap;strokeWidth=2;direction=west;" parent="1" vertex="1">
          <mxGeometry x="120" y="311" width="240" height="40" as="geometry" />
        </mxCell>
        <mxCell id="ZdD5bpX7GYeLZ1ydD8iu-67" value="Western blot 检测梗死侧脑组织 6h、12h、24h O-GlcNAc水平" style="whiteSpace=wrap;strokeWidth=2;direction=west;" parent="1" vertex="1">
          <mxGeometry x="120" y="470" width="240" height="38" as="geometry" />
        </mxCell>
        <mxCell id="ZdD5bpX7GYeLZ1ydD8iu-68" value="Western blot 检测复氧24h血管内皮细胞功能指标： eNOS、ZO-1、Claudin-3、ICAM-1和VCAM-1" style="whiteSpace=wrap;strokeWidth=2;direction=west;" parent="1" vertex="1">
          <mxGeometry x="120" y="360.5" width="240" height="40" as="geometry" />
        </mxCell>
        <mxCell id="ZdD5bpX7GYeLZ1ydD8iu-69" value="免疫荧光分析缺血半暗带区血管内皮细胞（CD31/VE-cadherin标记）中O-GlcNAc水平" style="whiteSpace=wrap;strokeWidth=2;direction=west;" parent="1" vertex="1">
          <mxGeometry x="120" y="257" width="240" height="43" as="geometry" />
        </mxCell>
        <mxCell id="ZdD5bpX7GYeLZ1ydD8iu-70" value="ELISA 检测促炎细胞因子 TNF-α、IL-6" style="whiteSpace=wrap;strokeWidth=2;direction=west;" parent="1" vertex="1">
          <mxGeometry x="120" y="417" width="240" height="43" as="geometry" />
        </mxCell>
        <mxCell id="ZdD5bpX7GYeLZ1ydD8iu-163" value="HBMECs +OGD/R组" style="whiteSpace=wrap;strokeWidth=2;direction=south;" parent="1" vertex="1">
          <mxGeometry x="472" y="430" width="138" height="30" as="geometry" />
        </mxCell>
        <mxCell id="ZdD5bpX7GYeLZ1ydD8iu-164" value="HBMECs 组" style="whiteSpace=wrap;strokeWidth=2;direction=south;" parent="1" vertex="1">
          <mxGeometry x="472" y="339" width="138" height="30" as="geometry" />
        </mxCell>
        <mxCell id="ZdD5bpX7GYeLZ1ydD8iu-168" value="CCK-8 方法检测复氧24h内皮细胞活性" style="whiteSpace=wrap;strokeWidth=2;direction=west;" parent="1" vertex="1">
          <mxGeometry x="120" y="530" width="240" height="40" as="geometry" />
        </mxCell>
        <mxCell id="2ft58m9F2QiJP_cwq27R-42" value="" style="shape=partialRectangle;whiteSpace=wrap;html=1;bottom=1;right=1;left=1;top=0;fillColor=none;routingCenterX=-0.5;direction=north;" parent="1" vertex="1">
          <mxGeometry x="-20" y="274" width="40" height="160" as="geometry" />
        </mxCell>
        <mxCell id="2ft58m9F2QiJP_cwq27R-56" value="" style="edgeStyle=elbowEdgeStyle;elbow=horizontal;endArrow=classic;html=1;curved=0;rounded=0;endSize=8;startSize=8;exitX=0.5;exitY=1;exitDx=0;exitDy=0;" parent="1" edge="1" source="LAmo0s7uLSBLvdIYXTk4-18">
          <mxGeometry width="50" height="50" relative="1" as="geometry">
            <mxPoint x="20" y="410" as="sourcePoint" />
            <mxPoint x="120" y="180" as="targetPoint" />
            <Array as="points">
              <mxPoint x="50" y="380" />
              <mxPoint x="50" y="310" />
              <mxPoint x="-10" y="306" />
            </Array>
          </mxGeometry>
        </mxCell>
        <mxCell id="2ft58m9F2QiJP_cwq27R-57" value="" style="edgeStyle=elbowEdgeStyle;elbow=horizontal;endArrow=classic;html=1;curved=0;rounded=0;endSize=8;startSize=8;entryX=1;entryY=0.5;entryDx=0;entryDy=0;" parent="1" target="ZdD5bpX7GYeLZ1ydD8iu-70" edge="1">
          <mxGeometry width="50" height="50" relative="1" as="geometry">
            <mxPoint x="50" y="300" as="sourcePoint" />
            <mxPoint x="110" y="440" as="targetPoint" />
            <Array as="points">
              <mxPoint x="50" y="620" />
              <mxPoint x="-10" y="375" />
              <mxPoint x="-10" y="355" />
            </Array>
          </mxGeometry>
        </mxCell>
        <mxCell id="2ft58m9F2QiJP_cwq27R-59" value="" style="endArrow=classic;html=1;rounded=0;" parent="1" edge="1">
          <mxGeometry width="50" height="50" relative="1" as="geometry">
            <mxPoint x="50" y="228.25" as="sourcePoint" />
            <mxPoint x="120" y="228.25" as="targetPoint" />
          </mxGeometry>
        </mxCell>
        <mxCell id="2ft58m9F2QiJP_cwq27R-64" value="" style="endArrow=classic;html=1;rounded=0;" parent="1" edge="1">
          <mxGeometry width="50" height="50" relative="1" as="geometry">
            <mxPoint x="50" y="278.27" as="sourcePoint" />
            <mxPoint x="120" y="278" as="targetPoint" />
          </mxGeometry>
        </mxCell>
        <mxCell id="LAmo0s7uLSBLvdIYXTk4-8" value="" style="endArrow=classic;html=1;rounded=0;" edge="1" parent="1">
          <mxGeometry width="50" height="50" relative="1" as="geometry">
            <mxPoint x="50" y="330.5" as="sourcePoint" />
            <mxPoint x="120" y="330.5" as="targetPoint" />
          </mxGeometry>
        </mxCell>
        <mxCell id="LAmo0s7uLSBLvdIYXTk4-10" value="" style="shape=partialRectangle;whiteSpace=wrap;html=1;bottom=1;right=1;left=1;top=0;fillColor=none;routingCenterX=-0.5;direction=south;" vertex="1" parent="1">
          <mxGeometry x="430" y="350" width="40" height="90" as="geometry" />
        </mxCell>
        <mxCell id="LAmo0s7uLSBLvdIYXTk4-11" value="" style="edgeStyle=elbowEdgeStyle;elbow=horizontal;endArrow=classic;html=1;curved=0;rounded=0;endSize=8;startSize=8;entryX=1;entryY=0.5;entryDx=0;entryDy=0;" edge="1" parent="1" target="ZdD5bpX7GYeLZ1ydD8iu-67">
          <mxGeometry width="50" height="50" relative="1" as="geometry">
            <mxPoint x="50" y="440" as="sourcePoint" />
            <mxPoint x="120" y="520" as="targetPoint" />
            <Array as="points">
              <mxPoint x="50" y="490" />
            </Array>
          </mxGeometry>
        </mxCell>
        <mxCell id="LAmo0s7uLSBLvdIYXTk4-18" value="" style="shape=partialRectangle;whiteSpace=wrap;html=1;bottom=1;right=1;left=1;top=0;fillColor=none;routingCenterX=-0.5;direction=north;" vertex="1" parent="1">
          <mxGeometry x="-20" y="324" width="40" height="50" as="geometry" />
        </mxCell>
        <mxCell id="LAmo0s7uLSBLvdIYXTk4-19" value="" style="edgeStyle=elbowEdgeStyle;elbow=horizontal;endArrow=classic;html=1;curved=0;rounded=0;endSize=8;startSize=8;entryX=0;entryY=0.5;entryDx=0;entryDy=0;exitX=0.5;exitY=1;exitDx=0;exitDy=0;" edge="1" parent="1" source="LAmo0s7uLSBLvdIYXTk4-10" target="ZdD5bpX7GYeLZ1ydD8iu-70">
          <mxGeometry width="50" height="50" relative="1" as="geometry">
            <mxPoint x="420" y="400" as="sourcePoint" />
            <mxPoint x="360.8" y="488.38" as="targetPoint" />
            <Array as="points">
              <mxPoint x="400" y="420" />
            </Array>
          </mxGeometry>
        </mxCell>
        <mxCell id="LAmo0s7uLSBLvdIYXTk4-20" value="" style="edgeStyle=elbowEdgeStyle;elbow=horizontal;endArrow=classic;html=1;curved=0;rounded=0;endSize=8;startSize=8;entryX=0;entryY=0.5;entryDx=0;entryDy=0;" edge="1" parent="1" target="ZdD5bpX7GYeLZ1ydD8iu-168">
          <mxGeometry width="50" height="50" relative="1" as="geometry">
            <mxPoint x="400" y="430" as="sourcePoint" />
            <mxPoint x="370" y="544" as="targetPoint" />
            <Array as="points">
              <mxPoint x="400" y="540" />
            </Array>
          </mxGeometry>
        </mxCell>
        <mxCell id="LAmo0s7uLSBLvdIYXTk4-25" value="" style="endArrow=classic;html=1;rounded=0;" edge="1" parent="1">
          <mxGeometry width="50" height="50" relative="1" as="geometry">
            <mxPoint x="400" y="500" as="sourcePoint" />
            <mxPoint x="360" y="498" as="targetPoint" />
            <Array as="points">
              <mxPoint x="400" y="498" />
            </Array>
          </mxGeometry>
        </mxCell>
        <mxCell id="LAmo0s7uLSBLvdIYXTk4-26" value="" style="endArrow=classic;html=1;rounded=0;" edge="1" parent="1">
          <mxGeometry width="50" height="50" relative="1" as="geometry">
            <mxPoint x="50" y="380" as="sourcePoint" />
            <mxPoint x="120" y="380" as="targetPoint" />
          </mxGeometry>
        </mxCell>
      </root>
    </mxGraphModel>
  </diagram>
</mxfile>
